<?xml version="1.0" encoding="UTF-8" standalone="no"?>
<svg
   xmlns:dc="http://purl.org/dc/elements/1.1/"
   xmlns:cc="http://creativecommons.org/ns#"
   xmlns:rdf="http://www.w3.org/1999/02/22-rdf-syntax-ns#"
   xmlns:svg="http://www.w3.org/2000/svg"
   xmlns="http://www.w3.org/2000/svg"
   width="62.499989"
   height="100.00047"
   id="svg2"
   version="1.1">
  <metadata
     id="metadata10">
    <rdf:RDF>
      <cc:Work
         rdf:about="">
        <dc:format>image/svg+xml</dc:format>
        <dc:type
           rdf:resource="http://purl.org/dc/dcmitype/StillImage" />
        <dc:title></dc:title>
      </cc:Work>
    </rdf:RDF>
  </metadata>
  <defs
     id="defs8" />
  <path
     style="fill-rule:evenodd"
     d="M 5,27.500469 C 5.4387358,15.182943 8.3701867,0.32293905 35,4.6866261e-4 48.790428,-0.16652479 62.499988,12.312639 62.499988,27.500469 c 0,15.18783 -12.312147,27.5 -27.499988,27.5 l -20,0 0,6 28,0 0,10 -28,0 0,29.000001 -10,0 0,-29.000001 -5,0 0,-10 5,0 0,-6 -5,0 0,-10 5,0 c 0,0 -0.5339438,-2.509506 0,-17.5 z m 10,0 c 0.338525,-10.073343 2.624207,-17.340343 20,-17.5 9.105858,-0.083669 17.499992,7.835017 17.499992,17.5 0,9.664983 -7.835002,17.5 -17.499992,17.5 l -20,0 c 0,0 -0.328568,-7.722941 0,-17.5 z"
     id="path4" />
</svg>
