<svg xmlns="http://www.w3.org/2000/svg" xmlns:xlink="http://www.w3.org/1999/xlink" viewBox="0 0 1920 1080"><defs><style>.cls-1{fill:none;}.cls-2{opacity:0.44;}.cls-3{clip-path:url(#clip-path);}.cls-4{clip-path:url(#clip-path-2);}</style><clipPath id="clip-path"><rect class="cls-1" x="-1514.34" y="1293.62" width="1049.72" height="1049.72"/></clipPath><clipPath id="clip-path-2"><rect class="cls-1" x="-3899.07" y="766.94" width="4769" height="4931.22"/></clipPath></defs><title>sysprim letter negro</title><g id="Capa_2" data-name="Capa 2"><path d="M136.15,439.38H333.67a6.92,6.92,0,1,0,0-13.84H136.15a60.15,60.15,0,1,0,0,120.29h144.3a46.31,46.31,0,0,1,0,92.61H82.92a6.92,6.92,0,0,0,0,13.84H280.45a60.15,60.15,0,0,0,0-120.29H136.15a46.31,46.31,0,1,1,0-92.61Z"/><path d="M831.63,532H687.33a46.31,46.31,0,1,1,0-92.61H884.86a6.92,6.92,0,0,0,0-13.84H687.33a60.15,60.15,0,1,0,0,120.29h144.3a46.31,46.31,0,1,1,0,92.61H634.1a6.92,6.92,0,0,0,0,13.84H831.63a60.15,60.15,0,1,0,0-120.29Z"/><path d="M610.45,425.54a6.92,6.92,0,0,0-6.92,6.92V532H417.22a50.67,50.67,0,0,1-50.61-50.61V432.46a6.92,6.92,0,1,0-13.83,0v48.92a64.51,64.51,0,0,0,64.44,64.45H603.53v47.52a45.14,45.14,0,0,1-45.09,45.09H359.69a6.92,6.92,0,0,0,0,13.84H558.44a59,59,0,0,0,58.93-58.93V432.46A6.92,6.92,0,0,0,610.45,425.54Z"/><path d="M1045.7,587.23H967.42v66.91H915.23V426.77c43.48,0,87-.32,130.47-.32C1180.92,426.45,1181.32,587.23,1045.7,587.23Zm-78.28-39.31h78.28c66.82,0,66.43-80.55,0-80.55H967.42Z"/><path d="M1428.05,654.14H1366l-80.66-76H1235.1v76h-52.19V426.45c43.89,0,87.77.32,131.66.32,65.24.32,99.64,36.05,99.64,75.36,0,31.18-17.4,62.69-70,71.45l83.82,77.63Zm-193-187.42v72.76h79.47c33.21,0,47.45-18.19,47.45-36.38s-14.63-36.38-47.45-36.38Z"/><path d="M1449.8,654.14V426.77h51.79V654.14Z"/><path d="M1791.81,489.46l-90.15,98.74h-10.28l-88.17-99.07V654.46H1551V427.09h60.1l86.59,97.77,86.59-97.77H1844V654.46h-52.19Z"/></g></svg>