<svg xmlns="http://www.w3.org/2000/svg" xmlns:xlink="http://www.w3.org/1999/xlink" viewBox="0 0 1920 1080"><defs><style>.cls-1{fill:none;}.cls-2{opacity:0.44;}.cls-3{clip-path:url(#clip-path);}.cls-4{clip-path:url(#clip-path-2);}.cls-5{fill:#13b265;}.cls-6{fill:#033;}</style><clipPath id="clip-path"><rect class="cls-1" x="-1514.34" y="1293.62" width="1049.72" height="1049.72"/></clipPath><clipPath id="clip-path-2"><rect class="cls-1" x="-3899.07" y="766.94" width="4769" height="4931.22"/></clipPath></defs><title>sysprim logo hor</title><g id="Capa_2" data-name="Capa 2"><path class="cls-5" d="M844.36,566.25h-86.3a38.17,38.17,0,1,1,0-76.34H883.42a4.39,4.39,0,1,1,0,8.78H758.06a29.39,29.39,0,1,0,0,58.77h86.3a4.4,4.4,0,0,1,0,8.79Z"/><path class="cls-5" d="M849.64,633.8H724.28a4.39,4.39,0,0,1,0-8.78H849.64a29.39,29.39,0,0,0,0-58.78H765.7a4.39,4.39,0,0,1,0-8.78h83.94a38.17,38.17,0,0,1,0,76.34Z"/><path class="cls-5" d="M1194.16,566.25h-86.3a38.17,38.17,0,1,1,0-76.34h125.35a4.39,4.39,0,1,1,0,8.78H1107.86a29.39,29.39,0,1,0,0,58.77h86.3a4.4,4.4,0,0,1,0,8.79Z"/><path class="cls-5" d="M1199.44,633.8H1074.08a4.39,4.39,0,1,1,0-8.78h125.36a29.39,29.39,0,0,0,0-58.78H1115.5a4.39,4.39,0,0,1,0-8.78h83.94a38.17,38.17,0,0,1,0,76.34Z"/><path class="cls-5" d="M1063.46,566.25h-127a40.94,40.94,0,0,1-40.9-40.9V494.3a4.39,4.39,0,0,1,8.78,0v31.05a32.15,32.15,0,0,0,32.12,32.11h118.23V494.3a4.4,4.4,0,0,1,8.79,0Z"/><path class="cls-5" d="M1026.06,633.8H899.93a4.39,4.39,0,0,1,0-8.78h126.13a28.65,28.65,0,0,0,28.61-28.62V566.24H963.11a4.39,4.39,0,0,1,0-8.78h100.35V596.4A37.44,37.44,0,0,1,1026.06,633.8Z"/><path class="cls-6" d="M1335.29,592.52h-49.68V635h-33.12V490.69c27.6,0,55.2-.21,82.8-.21C1421.11,490.48,1421.36,592.52,1335.29,592.52Zm-49.68-24.94h49.68c42.41,0,42.15-51.13,0-51.13h-49.68Z"/><path class="cls-6" d="M1577.94,635h-39.4l-51.19-48.23h-31.86V635h-33.12V490.48c27.85,0,55.7.21,83.55.21,41.4.2,63.24,22.88,63.24,47.82,0,19.79-11.05,39.78-44.42,45.35l53.2,49.27ZM1455.49,516v46.18h50.43c21.08,0,30.11-11.55,30.11-23.09S1526.75,516,1505.92,516Z"/><path class="cls-6" d="M1591.74,635V490.69h32.87V635Z"/><path class="cls-6" d="M1808.79,530.47l-57.21,62.67h-6.52l-56-62.87V635.19H1656V490.89h38.14l55,62.05,55-62.05h37.9v144.3h-33.13Z"/><path class="cls-5" d="M472.55,560.08A20.54,20.54,0,0,1,452,580.61H295.62a98.84,98.84,0,0,1,0-197.68H528.87a234.52,234.52,0,0,0-175-78.09C251.69,304.84,164.73,370,132.29,461A232.29,232.29,0,0,0,122,500.29a234.76,234.76,0,0,0,28.5,158q3.94,6.76,8.31,13.23V735A276.23,276.23,0,0,1,89.41,461.53c33.8-114.08,139.4-197.3,264.45-197.3A276.1,276.1,0,0,1,603.48,422.64H294.06a58.46,58.46,0,1,0,0,116.91H452A20.53,20.53,0,0,1,472.55,560.08Z"/><path class="cls-6" d="M629.63,540a276.47,276.47,0,0,1-2.74,39C608,712.83,492.94,815.77,353.86,815.77A274.43,274.43,0,0,1,197.23,767V630A11.06,11.06,0,0,1,208.29,619H453.81a58.39,58.39,0,0,0,58.46-58.45v-1.79a58.38,58.38,0,0,0-58.46-58.45H295.18a19.42,19.42,0,0,1-19.41-19.42v-.44A19.41,19.41,0,0,1,295.18,461H454.59a98.61,98.61,0,0,1-1.67,197.21H237.39v86.09a234.09,234.09,0,0,0,116.47,30.82c116,0,212.43-84,231.66-194.55A236.27,236.27,0,0,0,589,540v-.45A234.48,234.48,0,0,0,575.42,461h42.73a275.23,275.23,0,0,1,11.45,75.47Q629.63,538.24,629.63,540Z"/></g></svg>