<svg xmlns="http://www.w3.org/2000/svg" xmlns:xlink="http://www.w3.org/1999/xlink" viewBox="0 0 1920 1080"><defs><style>.cls-1{fill:none;}.cls-2{opacity:0.44;}.cls-3{clip-path:url(#clip-path);}.cls-4{clip-path:url(#clip-path-2);}</style><clipPath id="clip-path"><rect class="cls-1" x="-1514.34" y="1293.62" width="1049.72" height="1049.72"/></clipPath><clipPath id="clip-path-2"><rect class="cls-1" x="-3899.07" y="766.94" width="4769" height="4931.22"/></clipPath></defs><title>sysprim logo ver negro</title><g id="Capa_2" data-name="Capa 2"><path d="M440.36,804.63H565a4.37,4.37,0,0,0,0-8.73H440.36a37.94,37.94,0,0,0,0,75.88h91a29.21,29.21,0,0,1,0,58.41H406.79a4.37,4.37,0,1,0,0,8.73H531.38a37.94,37.94,0,0,0,0-75.87h-91a29.21,29.21,0,0,1,0-58.42Z"/><path d="M879,863.05H788a29.21,29.21,0,0,1,0-58.42H912.6a4.37,4.37,0,1,0,0-8.73H788a37.94,37.94,0,0,0,0,75.88h91a29.21,29.21,0,1,1,0,58.41H754.44a4.37,4.37,0,0,0,0,8.73H879a37.94,37.94,0,1,0,0-75.87Z"/><path d="M739.52,795.9a4.37,4.37,0,0,0-4.36,4.37v62.78H617.64a32,32,0,0,1-31.92-31.92V800.27a4.36,4.36,0,1,0-8.72,0v30.86a40.69,40.69,0,0,0,40.64,40.65H735.16v30a28.47,28.47,0,0,1-28.44,28.44H581.36a4.37,4.37,0,0,0,0,8.73H706.72a37.21,37.21,0,0,0,37.17-37.17V800.27A4.37,4.37,0,0,0,739.52,795.9Z"/><path d="M1014.05,897.89H964.68v42.2H931.76V796.68c27.43,0,54.86-.2,82.29-.2C1099.35,796.48,1099.59,897.89,1014.05,897.89ZM964.68,873.1h49.37c42.15,0,41.9-50.81,0-50.81H964.68Z"/><path d="M1255.22,940.09h-39.16l-50.87-47.94h-31.67v47.94H1100.6V796.48c27.68,0,55.36.2,83,.2,41.15.21,62.85,22.74,62.85,47.53,0,19.67-11,39.54-44.14,45.07l52.87,49Zm-121.7-118.21v45.89h50.12c20.95,0,29.93-11.47,29.93-22.94s-9.23-23-29.93-23Z"/><path d="M1268.94,940.09V796.68h32.67V940.09Z"/><path d="M1484.66,836.22,1427.8,898.5h-6.48L1365.7,836V940.3h-32.92V796.89h37.91l54.62,61.66,54.61-61.66h37.66V940.3h-32.92Z"/><path d="M1089.51,433.74a20.42,20.42,0,0,1-20.4,20.41H913.66a98.24,98.24,0,0,1,0-196.48h231.82a233.09,233.09,0,0,0-173.94-77.61c-101.54,0-188,64.75-220.21,155.23a230.79,230.79,0,0,0-10.19,39,235,235,0,0,0,10.19,118,231.3,231.3,0,0,0,18.14,39q3.91,6.72,8.26,13.15V607.6a274.78,274.78,0,0,1-53.87-76.29,270.62,270.62,0,0,1-15.21-39.75,275.59,275.59,0,0,1,.06-155.77C742.3,222.42,847.26,139.7,971.54,139.7a274.26,274.26,0,0,1,248.09,157.45H912.11a58.1,58.1,0,1,0,0,116.19h157A20.41,20.41,0,0,1,1089.51,433.74Z"/><path d="M1245.62,413.79a274.78,274.78,0,0,1-2.72,38.72c-18.8,133-133.13,235.36-271.36,235.36A272.62,272.62,0,0,1,815.87,639.4V503.28a11,11,0,0,1,11-11h244a58,58,0,0,0,58.1-58.1v-1.78a58,58,0,0,0-58.1-58.1H913.22A19.29,19.29,0,0,1,893.93,355v-.44a19.29,19.29,0,0,1,19.29-19.29h158.44a97.93,97.93,0,0,1,96.35,98,98,98,0,0,1-98,98H855.79v85.56a232.53,232.53,0,0,0,115.75,30.64c115.32,0,211.13-83.51,230.25-193.36a234.45,234.45,0,0,0,3.47-40.36v-.45a233,233,0,0,0-13.51-78h42.47a273.85,273.85,0,0,1,11.38,75C1245.61,411.46,1245.62,412.62,1245.62,413.79Z"/></g></svg>