<svg xmlns="http://www.w3.org/2000/svg" xmlns:xlink="http://www.w3.org/1999/xlink" viewBox="0 0 1920 1080"><defs><style>.cls-1{fill:none;}.cls-2{opacity:0.44;}.cls-3{clip-path:url(#clip-path);}.cls-4{clip-path:url(#clip-path-2);}</style><clipPath id="clip-path"><rect class="cls-1" x="-1514.34" y="1293.62" width="1049.72" height="1049.72"/></clipPath><clipPath id="clip-path-2"><rect class="cls-1" x="-3899.07" y="766.94" width="4769" height="4931.22"/></clipPath></defs><title>sysprim logo negro</title><g id="Capa_2" data-name="Capa 2"><path d="M1179,577.05a37.9,37.9,0,0,1-37.87,37.87H852.56a182.36,182.36,0,0,1,0-364.71h430.33A432.68,432.68,0,0,0,960,106.13c-188.5,0-348.92,120.2-408.77,288.15a427.59,427.59,0,0,0-18.92,72.45,436.17,436.17,0,0,0,18.92,219,428.68,428.68,0,0,0,33.67,72.45q7.26,12.47,15.33,24.4v117.2A509.7,509.7,0,0,1,472.11,395.22c62.35-210.46,257.19-364,487.89-364,173.32,0,326.38,86.66,418.26,219a505.93,505.93,0,0,1,42.28,73.27H849.68a107.85,107.85,0,1,0,0,215.7h291.44A37.88,37.88,0,0,1,1179,577.05Z"/><path d="M1468.79,540a510.35,510.35,0,0,1-5.06,71.89c-34.91,247-247.13,436.9-503.73,436.9a506.3,506.3,0,0,1-289-90V706.12a20.41,20.41,0,0,1,20.4-20.4h453a107.71,107.71,0,0,0,107.85-107.85v-3.29a107.73,107.73,0,0,0-107.85-107.85H851.74a35.81,35.81,0,0,1-35.81-35.81v-.83a35.81,35.81,0,0,1,35.81-35.81h291c.87,0,1.74,0,2.6,0a1.91,1.91,0,0,1,.48,0,181.75,181.75,0,0,1,178.86,181.89,181.91,181.91,0,0,1-181.94,181.95H745.12V917A431.84,431.84,0,0,0,960,973.87c214.07,0,391.93-155,427.41-359a435.27,435.27,0,0,0,6.46-74.92v-.82a432.71,432.71,0,0,0-25.1-144.9h78.84a508.29,508.29,0,0,1,21.13,139.25C1468.77,535.69,1468.79,537.84,1468.79,540Z"/></g></svg>